HIERARCHY
ROOT root
{
	OFFSET 0.000000 0.000000 0.000000
	CHANNELS 6 Xposition Yposition Zposition Zrotation Yrotation Xrotation
	JOINT lhip
	{
		OFFSET 0.058581 -0.082280 -0.017664
		CHANNELS 3 Zrotation Yrotation Xrotation
		JOINT lknee
		{
			OFFSET 0.043451 -0.386469 0.008037
			CHANNELS 3 Zrotation Yrotation Xrotation
			JOINT lankle
			{
				OFFSET -0.014790 -0.426874 -0.037428
				CHANNELS 3 Zrotation Yrotation Xrotation
				JOINT ltoe
				{
					OFFSET 0.041054 -0.060286 0.122042
					CHANNELS 3 Zrotation Yrotation Xrotation
					End Site
					{
						OFFSET 0.000000 0.000000 0.000000
					}
				}
			}
		}
	}
	JOINT rhip
	{
		OFFSET -0.060310 -0.090513 -0.013543
		CHANNELS 3 Zrotation Yrotation Xrotation
		JOINT rknee
		{
			OFFSET -0.043257 -0.383688 -0.004843
			CHANNELS 3 Zrotation Yrotation Xrotation
			JOINT rankle
			{
				OFFSET 0.019056 -0.420046 -0.034562
				CHANNELS 3 Zrotation Yrotation Xrotation
				JOINT rtoe
				{
					OFFSET -0.034840 -0.062106 0.130323
					CHANNELS 3 Zrotation Yrotation Xrotation
					End Site
					{
						OFFSET 0.000000 0.000000 0.000000
					}
				}
			}
		}
	}
	JOINT lowerback
	{
		OFFSET 0.004439 0.124404 -0.038385
		CHANNELS 3 Zrotation Yrotation Xrotation
		JOINT upperback
		{
			OFFSET 0.004488 0.137956 0.026820
			CHANNELS 3 Zrotation Yrotation Xrotation
			JOINT chest
			{
				OFFSET -0.002265 0.056032 0.002855
				CHANNELS 3 Zrotation Yrotation Xrotation
				JOINT lowerneck
				{
					OFFSET -0.013390 0.211636 -0.033468
					CHANNELS 3 Zrotation Yrotation Xrotation
					JOINT upperneck
					{
						OFFSET 0.010113 0.088937 0.050410
						CHANNELS 3 Zrotation Yrotation Xrotation
						End Site
						{
							OFFSET 0.000000 0.000000 0.000000
						}
					}
				}
				JOINT lclavicle
				{
					OFFSET 0.071702 0.114000 -0.018898
					CHANNELS 3 Zrotation Yrotation Xrotation
					JOINT lshoulder
					{
						OFFSET 0.122921 0.045205 -0.019046
						CHANNELS 3 Zrotation Yrotation Xrotation
						JOINT lelbow
						{
							OFFSET 0.255332 -0.015649 -0.022946
							CHANNELS 3 Zrotation Yrotation Xrotation
							JOINT lwrist
							{
								OFFSET 0.265709 0.012698 -0.007375
								CHANNELS 3 Zrotation Yrotation Xrotation
								End Site
								{
									OFFSET 0.000000 0.000000 0.000000
								}
							}
						}
					}
				}
				JOINT rclavicle
				{
					OFFSET -0.082954 0.112472 -0.023707
					CHANNELS 3 Zrotation Yrotation Xrotation
					JOINT rshoulder
					{
						OFFSET -0.113228 0.046853 -0.008472
						CHANNELS 3 Zrotation Yrotation Xrotation
						JOINT relbow
						{
							OFFSET -0.260127 -0.014369 -0.031269
							CHANNELS 3 Zrotation Yrotation Xrotation
							JOINT rwrist
							{
								OFFSET -0.269108 0.006794 -0.006027
								CHANNELS 3 Zrotation Yrotation Xrotation
								End Site
								{
									OFFSET 0.000000 0.000000 0.000000
								}
							}
						}
					}
				}
			}
		}
	}
}
MOTION
Frames: 7
Frame Time: 0.033333
-1.985595 0.350876 1.023620 94.164682 0.017238 87.371907 -3.176822 -0.374388 5.320367 -4.238075 -13.680207 2.092830 5.757185 9.348922 -10.340161 0.000000 -0.000000 0.000000 -2.352369 -0.204367 -11.993932 2.541151 -4.934737 34.224139 6.106749 -5.961610 -14.163823 0.000000 -0.000000 0.000000 -6.173186 0.397973 12.016115 2.230773 -1.249821 -0.052315 0.120603 -1.005908 6.100479 6.604489 -1.727514 22.004599 -3.785308 -7.942498 22.078063 -20.186989 13.055369 0.925268 -56.819174 -9.729909 8.032975 11.046248 -32.483198 4.999048 -5.733574 -0.498673 -6.413333 28.519181 -6.324792 0.271469 59.076741 8.382009 10.452040 -22.742383 15.344577 -14.158629 4.278660 2.127641 -6.080448 
-1.984627 0.349476 1.023731 93.809291 0.098275 87.713186 -3.047683 -0.435799 4.859463 -4.217070 -13.299353 2.424228 5.192099 9.253417 -10.619800 0.000000 -0.000000 0.000000 -1.828274 -1.163863 -10.177382 1.894505 -4.661645 30.185972 5.491610 -5.487869 -15.570846 0.000000 -0.000000 0.000000 -6.094928 0.813095 11.622739 2.011347 -1.484135 -0.129327 0.095856 -0.734219 6.018922 6.108744 -1.155191 22.823564 -3.281804 -7.242131 21.463062 -20.340172 12.786742 0.985494 -56.548110 -9.803964 7.871953 11.237573 -33.788073 4.108813 -5.368829 -0.577858 -7.563928 28.429603 -6.126330 0.551993 59.269998 7.865373 10.323330 -22.900197 15.870764 -13.965780 4.027211 2.149983 -6.696817 
-1.984374 0.347556 1.024276 92.978529 0.099799 88.166103 -3.022629 -0.872351 4.279493 -4.207621 -12.518975 2.723765 5.406840 9.276243 -10.205856 0.000000 -0.000000 0.000000 -1.131014 -1.370591 -8.921421 1.446471 -4.065666 27.083150 4.888547 -5.457116 -15.970538 0.000000 -0.000000 0.000000 -6.085223 1.292312 11.183103 1.832104 -1.312974 -0.277502 -0.030624 -0.462251 5.866752 5.784534 -1.478611 23.184872 -3.032667 -7.431656 21.507583 -20.564616 12.868303 0.799616 -56.566355 -10.169747 7.888390 11.666085 -34.629343 3.468137 -5.000348 -0.472590 -8.337596 28.405901 -6.181633 0.741170 59.466351 7.737791 10.401555 -23.005947 15.817375 -13.840951 3.640842 2.146319 -6.927109 
-1.984946 0.345081 1.027141 91.785817 0.372670 88.416221 -2.845559 -0.998876 3.856942 -3.894376 -11.788384 2.968642 5.354895 9.248514 -9.675721 0.000000 -0.000000 0.000000 -0.214183 -1.076021 -7.541234 1.016832 -3.361412 23.803965 4.669901 -5.212903 -14.822604 0.000000 -0.000000 0.000000 -5.789608 1.605143 10.886985 1.682527 -0.827647 -0.124661 -0.147228 -0.044634 5.715997 5.445970 -2.386101 23.204653 -3.018590 -8.099767 22.142541 -21.265797 12.869679 0.563535 -56.658461 -10.763784 8.077122 12.604658 -35.825554 2.705541 -4.670042 -0.656855 -7.705664 28.315570 -6.055219 0.912401 59.520206 7.811555 10.412710 -23.078476 15.547807 -13.981114 3.807900 2.481729 -6.814837 
-1.985495 0.343653 1.029338 91.103979 0.581714 88.456338 -2.678365 -0.872832 3.651999 -3.778659 -11.341353 3.234701 5.427782 9.202792 -9.465566 0.000000 -0.000000 0.000000 0.098013 -0.853228 -7.223432 0.969548 -3.188307 22.877280 4.825705 -4.699657 -13.949931 0.000000 -0.000000 0.000000 -5.600282 1.628624 11.051732 1.642844 -0.500654 -0.148072 -0.158559 0.149172 5.569107 5.201534 -2.415580 23.174450 -3.121221 -7.914367 22.291539 -21.576673 13.007245 0.318850 -56.894905 -10.857251 8.294990 13.026870 -36.589193 2.607220 -4.439005 -0.992854 -7.223857 28.251513 -6.013776 0.952924 59.379894 7.870667 10.481971 -23.003569 15.675638 -13.981119 3.816612 2.545263 -6.549895 
-1.986493 0.341975 1.030648 90.810888 0.628790 88.554153 -2.575224 -1.091111 3.538034 -3.745623 -11.283201 3.180332 5.472671 9.194747 -9.141671 0.000000 -0.000000 0.000000 0.065400 -0.560580 -7.052198 1.291651 -3.294604 22.190594 4.944869 -4.593360 -13.400830 0.000000 -0.000000 0.000000 -5.543295 1.534330 11.240265 1.557517 -0.405879 -0.220345 -0.166951 0.169436 5.488799 5.055910 -2.599968 23.175399 -3.037521 -8.005217 22.380180 -21.424572 13.095614 0.541774 -57.421578 -11.052125 8.655519 13.219649 -37.940348 3.079877 -4.302323 -1.142360 -6.492409 27.963203 -5.906938 1.077538 59.405712 7.936181 10.505499 -22.949993 16.131573 -13.664154 4.217469 2.557617 -6.015328 
-1.988017 0.340525 1.031204 90.886591 0.646589 88.723844 -2.316341 -0.896542 3.380141 -3.862122 -11.070899 2.982486 5.222954 8.868968 -9.723466 0.000000 -0.000000 0.000000 0.050486 -1.374632 -7.045912 1.409273 -3.228885 21.630814 5.048023 -3.964151 -13.153874 0.000000 -0.000000 0.000000 -5.481761 1.557315 11.301054 1.596809 -0.791424 -0.140272 -0.217225 0.088029 5.261667 4.973806 -3.130139 23.626451 -2.826400 -8.357828 22.585577 -21.222844 12.817859 1.111800 -57.560271 -11.099512 8.855150 12.876507 -39.177027 3.651227 -4.407688 -1.068133 -6.188808 27.766665 -5.782428 1.210503 59.162849 8.016505 10.296789 -22.795589 17.006861 -13.291749 4.964459 2.157267 -5.624687 
